<svg width="16" height="16" viewBox="0 0 16 16" fill="none" xmlns="http://www.w3.org/2000/svg">
<path d="M0.936 12.084C0.8 12.084 0.688 12.048 0.6 11.976C0.52 11.904 0.472 11.816 0.456 11.712C0.448 11.608 0.488 11.504 0.576 11.4L3.48 7.488V7.86L0.744 4.164C0.656 4.044 0.616 3.932 0.624 3.828C0.632 3.724 0.676 3.636 0.756 3.564C0.844 3.492 0.948 3.456 1.068 3.456C1.18 3.456 1.276 3.48 1.356 3.528C1.436 3.576 1.52 3.66 1.608 3.78L4.068 7.152H3.756L6.204 3.78C6.284 3.66 6.364 3.576 6.444 3.528C6.524 3.48 6.62 3.456 6.732 3.456C6.86 3.456 6.964 3.492 7.044 3.564C7.132 3.628 7.18 3.716 7.188 3.828C7.196 3.932 7.156 4.044 7.068 4.164L4.332 7.86V7.488L7.236 11.4C7.316 11.504 7.348 11.608 7.332 11.712C7.324 11.816 7.28 11.904 7.2 11.976C7.12 12.048 7.012 12.084 6.876 12.084C6.772 12.084 6.676 12.056 6.588 12C6.508 11.952 6.424 11.872 6.336 11.76L3.708 8.172H4.092L1.464 11.76C1.384 11.872 1.3 11.952 1.212 12C1.124 12.056 1.032 12.084 0.936 12.084Z" fill="#FF1E00"/>
<path d="M10.596 12.108C9.812 12.108 9.128 11.932 8.544 11.58C7.968 11.22 7.52 10.716 7.2 10.068C6.888 9.42 6.732 8.652 6.732 7.764C6.732 7.092 6.82 6.492 6.996 5.964C7.18 5.428 7.44 4.976 7.776 4.608C8.112 4.232 8.516 3.944 8.988 3.744C9.468 3.536 10.004 3.432 10.596 3.432C11.396 3.432 12.084 3.608 12.66 3.96C13.244 4.312 13.692 4.812 14.004 5.46C14.324 6.1 14.484 6.864 14.484 7.752C14.484 8.424 14.392 9.028 14.208 9.564C14.024 10.1 13.764 10.556 13.428 10.932C13.092 11.308 12.684 11.6 12.204 11.808C11.732 12.008 11.196 12.108 10.596 12.108ZM10.596 11.232C11.204 11.232 11.716 11.096 12.132 10.824C12.556 10.552 12.88 10.156 13.104 9.636C13.328 9.116 13.44 8.492 13.44 7.764C13.44 6.668 13.192 5.82 12.696 5.22C12.208 4.612 11.508 4.308 10.596 4.308C10.004 4.308 9.496 4.444 9.072 4.716C8.656 4.988 8.336 5.384 8.112 5.904C7.888 6.416 7.776 7.036 7.776 7.764C7.776 8.852 8.024 9.704 8.52 10.32C9.016 10.928 9.708 11.232 10.596 11.232Z" fill="#1900FF"/>
</svg>
