<svg width="512" height="512" viewBox="0 0 512 512" fill="none" xmlns="http://www.w3.org/2000/svg">
<path d="M358.9 170.65C379.407 170.717 400.887 170.707 423.34 170.62C428.273 170.6 432.137 171.08 434.93 172.06C452.9 178.37 452.32 206.43 434.06 212.25C431.46 213.077 426.657 213.463 419.65 213.41C396.503 213.237 373.35 213.223 350.19 213.37C350.096 213.373 350.006 213.407 349.935 213.467C349.864 213.527 349.816 213.609 349.8 213.7L335.04 298.06C334.967 298.46 335.133 298.663 335.54 298.67C366.82 298.723 396.193 298.707 423.66 298.62C433.43 298.59 440.96 300.63 445.59 309.42C447.063 312.207 447.86 315.453 447.98 319.16C448.29 328.82 443.58 337.18 434.07 340.25C431.61 341.043 426.957 341.427 420.11 341.4C388.79 341.267 358.38 341.247 328.88 341.34C328.775 341.343 328.675 341.382 328.595 341.451C328.515 341.52 328.46 341.615 328.44 341.72C322.94 370.753 317.503 399.28 312.13 427.3C311.81 428.967 311.577 430.607 311.43 432.22C310.51 442.55 297.78 449.57 287.99 448.26C286.11 448 284.16 448.13 282.3 447.67C273.22 445.46 267.12 437.61 266.36 428.38C266.187 426.207 266.407 423.483 267.02 420.21C271.96 393.75 276.783 367.623 281.49 341.83C281.502 341.767 281.499 341.702 281.483 341.639C281.467 341.577 281.437 341.519 281.396 341.47C281.355 341.42 281.304 341.38 281.246 341.352C281.188 341.325 281.124 341.31 281.06 341.31H198.75C198.523 341.31 198.39 341.423 198.35 341.65C193.517 370.543 188.7 399.44 183.9 428.34C183.707 429.507 183.563 430.687 183.47 431.88C182.7 441.36 173.15 447.33 164.3 448.3C161.65 448.59 159.26 448.08 156.64 448C146.82 447.69 139.01 437.75 138.4 428.63C138.227 426.063 138.453 423.11 139.08 419.77C143.673 395.377 148.477 369.38 153.49 341.78C153.5 341.724 153.498 341.667 153.483 341.612C153.468 341.557 153.441 341.506 153.404 341.462C153.367 341.418 153.32 341.383 153.268 341.358C153.215 341.334 153.158 341.321 153.1 341.32C131.567 341.293 109.56 341.307 87.0799 341.36C83.0933 341.367 79.8033 340.907 77.2099 339.98C65.2599 335.72 61.4199 322.38 65.5799 311.3C68.9599 302.27 77.0699 298.66 86.3399 298.66C112.393 298.687 137.487 298.703 161.62 298.71C161.76 298.709 161.896 298.659 162.003 298.568C162.111 298.477 162.184 298.35 162.21 298.21L176.98 213.81C177.033 213.497 176.903 213.34 176.59 213.34C148.23 213.267 118.9 213.28 88.5999 213.38C83.7666 213.393 79.9966 212.937 77.2899 212.01C65.2499 207.88 61.4199 194.31 65.6399 183.17C69.0299 174.2 77.1699 170.65 86.4299 170.66C120.89 170.707 153.77 170.707 185.07 170.66C185.423 170.66 185.63 170.487 185.69 170.14C190.503 141.293 195.303 112.477 200.09 83.6899C200.297 82.4699 200.447 81.2299 200.54 79.9699C201.35 69.3399 214.2 62.5399 223.96 63.7299C225.9 63.9699 227.91 63.8699 229.79 64.3399C241.18 67.1999 247.37 78.5399 245.28 89.8699C240.327 116.737 235.39 143.543 230.47 170.29C230.461 170.338 230.463 170.388 230.476 170.436C230.488 170.484 230.511 170.528 230.542 170.566C230.574 170.604 230.613 170.635 230.658 170.656C230.702 170.678 230.751 170.689 230.8 170.69H313.19C313.303 170.689 313.412 170.649 313.498 170.575C313.584 170.502 313.641 170.401 313.66 170.29C318.48 141.417 323.3 112.493 328.12 83.5199C328.127 83.4599 328.267 82.2699 328.54 79.9499C329.74 69.7299 340.25 63.6199 349.79 63.6799C352.9 63.7099 356.44 63.8299 359.36 64.7899C370.54 68.4899 375.2 79.8499 373.15 90.8699C368.01 118.403 363.123 144.833 358.49 170.16C358.48 170.22 358.483 170.281 358.499 170.34C358.515 170.398 358.543 170.453 358.582 170.499C358.621 170.546 358.67 170.584 358.724 170.61C358.779 170.636 358.839 170.649 358.9 170.65ZM207.02 298.2C207.01 298.26 207.013 298.321 207.029 298.38C207.045 298.438 207.073 298.493 207.112 298.539C207.151 298.586 207.2 298.624 207.254 298.65C207.309 298.676 207.369 298.689 207.43 298.69L289.78 298.68C289.878 298.679 289.974 298.643 290.048 298.579C290.123 298.515 290.174 298.427 290.19 298.33L304.98 213.8C304.99 213.74 304.987 213.679 304.971 213.62C304.955 213.561 304.927 213.507 304.888 213.46C304.849 213.414 304.8 213.376 304.745 213.35C304.691 213.324 304.631 213.311 304.57 213.31H222.22C222.121 213.311 222.026 213.346 221.951 213.41C221.876 213.474 221.826 213.563 221.81 213.66L207.02 298.2Z" fill="white"/>
</svg>
